# Blender 5.0.1
# www.blender.org
mtllib 0.mtl
o nw
v -0.187500 0.812500 -0.187500
v -0.187500 0.812500 -0.250000
v -0.187500 0.750000 -0.187500
v -0.187500 0.750000 -0.250000
v -0.250000 0.812500 -0.250000
v -0.250000 0.812500 -0.187500
v -0.250000 0.750000 -0.250000
v -0.250000 0.750000 -0.187500
vn -0.0000 -0.0000 -1.0000
vn 1.0000 -0.0000 -0.0000
vn -0.0000 -0.0000 1.0000
vn -1.0000 -0.0000 -0.0000
vn -0.0000 1.0000 -0.0000
vn -0.0000 -1.0000 -0.0000
vt 0.650000 0.951875
vt 0.698125 0.951875
vt 0.698125 1.000000
vt 0.650000 1.000000
s 1
usemtl マテリアル
f 4/1/1 7/2/1 5/3/1 2/4/1
f 3/1/2 4/2/2 2/3/2 1/4/2
f 8/1/3 3/2/3 1/3/3 6/4/3
f 7/1/4 8/2/4 6/3/4 5/4/4
f 6/1/5 1/2/5 2/3/5 5/4/5
f 7/1/6 4/2/6 3/3/6 8/4/6
o tn
v -0.250000 0.750000 -0.187500
v -0.250000 0.750000 -0.250000
v -0.250000 0.687500 -0.187500
v -0.250000 0.687500 -0.250000
v -0.312500 0.750000 -0.250000
v -0.312500 0.750000 -0.187500
v -0.312500 0.687500 -0.250000
v -0.312500 0.687500 -0.187500
vn -0.0000 -0.0000 -1.0000
vn 1.0000 -0.0000 -0.0000
vn -0.0000 -0.0000 1.0000
vn -1.0000 -0.0000 -0.0000
vn -0.0000 1.0000 -0.0000
vn -0.0000 -1.0000 -0.0000
vt 0.650000 0.951875
vt 0.698125 0.951875
vt 0.698125 1.000000
vt 0.650000 1.000000
s 1
usemtl マテリアル
f 12/5/7 15/6/7 13/7/7 10/8/7
f 11/5/8 12/6/8 10/7/8 9/8/8
f 16/5/9 11/6/9 9/7/9 14/8/9
f 15/5/10 16/6/10 14/7/10 13/8/10
f 14/5/11 9/6/11 10/7/11 13/8/11
f 15/5/12 12/6/12 11/7/12 16/8/12
o TNW
v -0.187500 0.812504 -0.249996
v -0.187500 0.750000 -0.312500
v -0.249998 0.750000 -0.312502
v -0.249998 0.812504 -0.249998
vn -0.0000 0.7071 -0.7071
vt 0.650000 0.951875
vt 0.698125 0.951875
vt 0.698125 1.000000
vt 0.650000 1.000000
s 1
usemtl マテリアル
f 20/9/13 17/10/13 18/11/13 19/12/13
o tw
v -0.187500 0.750000 -0.250000
v -0.187500 0.750000 -0.312500
v -0.187500 0.687500 -0.250000
v -0.187500 0.687500 -0.312500
v -0.250000 0.750000 -0.312500
v -0.250000 0.750000 -0.250000
v -0.250000 0.687500 -0.312500
v -0.250000 0.687500 -0.250000
vn -0.0000 -0.0000 -1.0000
vn 1.0000 -0.0000 -0.0000
vn -0.0000 -0.0000 1.0000
vn -1.0000 -0.0000 -0.0000
vn -0.0000 1.0000 -0.0000
vn -0.0000 -1.0000 -0.0000
vt 0.650000 0.951875
vt 0.698125 0.951875
vt 0.698125 1.000000
vt 0.650000 1.000000
s 1
usemtl マテリアル
f 24/13/14 27/14/14 25/15/14 22/16/14
f 23/13/15 24/14/15 22/15/15 21/16/15
f 28/13/16 23/14/16 21/15/16 26/16/16
f 27/13/17 28/14/17 26/15/17 25/16/17
f 26/13/18 21/14/18 22/15/18 25/16/18
f 27/13/19 24/14/19 23/15/19 28/16/19
o TNW.001
v -0.312499 0.750003 -0.249999
v -0.249995 0.750003 -0.312503
v -0.249999 0.749999 -0.312503
v -0.249999 0.812503 -0.249999
v -0.312503 0.749999 -0.249999
v -0.249999 0.812503 -0.249999
vn -0.5774 0.5774 -0.5774
vt 0.650000 0.730000
vt 0.750000 0.730000
vt 0.700000 0.820000
s 1
usemtl マテリアル
f 31/17/20 33/18/20 29/18/20 32/19/20 34/19/20 30/17/20
o TNW.002
v -0.249998 0.812504 -0.249998
v -0.249996 0.812504 -0.187500
v -0.312500 0.750000 -0.250000
v -0.312500 0.750000 -0.187500
vn -0.7071 0.7071 -0.0000
vt 0.650000 0.951875
vt 0.698125 0.951875
vt 0.698125 1.000000
vt 0.650000 1.000000
s 1
usemtl マテリアル
f 38/20/21 36/21/21 35/22/21 37/23/21
o TNW.003
v -0.249998 0.750000 -0.312502
v -0.312500 0.750000 -0.250000
v -0.249996 0.687500 -0.312504
v -0.312500 0.687500 -0.250000
vn -0.7071 -0.0000 -0.7071
vt 0.650000 0.951875
vt 0.698125 0.951875
vt 0.698125 1.000000
vt 0.650000 1.000000
s 1
usemtl マテリアル
f 41/24/22 42/25/22 40/26/22 39/27/22
