# Blender 5.0.1
# www.blender.org
mtllib 2.mtl
o ne.002
v 0.250000 0.812404 -0.312596
v 0.312404 0.812596 -0.250000
v 0.312596 0.750000 -0.312404
v 0.250000 0.812500 -0.187500
v 0.250000 0.812500 -0.250000
v 0.250000 0.750000 -0.187500
v 0.250000 0.750000 -0.250000
v 0.187500 0.812500 -0.250000
v 0.187500 0.812500 -0.187500
v 0.187500 0.750000 -0.250000
v 0.187500 0.750000 -0.187500
v 0.312500 0.750000 -0.250000
v 0.312500 0.750000 -0.312500
v 0.312500 0.687500 -0.250000
v 0.312500 0.687500 -0.312500
v 0.250000 0.750000 -0.312500
v 0.250000 0.750000 -0.250000
v 0.250000 0.687500 -0.312500
v 0.250000 0.687500 -0.250000
v 0.250000 0.812500 -0.250000
v 0.250000 0.812500 -0.312500
v 0.250000 0.750000 -0.250000
v 0.250000 0.750000 -0.312500
v 0.187500 0.812500 -0.312500
v 0.187500 0.812500 -0.250000
v 0.187500 0.750000 -0.312500
v 0.187500 0.750000 -0.250000
v 0.312500 0.812500 -0.187500
v 0.312500 0.812500 -0.250000
v 0.312500 0.750000 -0.187500
v 0.312500 0.750000 -0.250000
v 0.250000 0.812500 -0.250000
v 0.250000 0.812500 -0.187500
v 0.250000 0.750000 -0.250000
v 0.250000 0.750000 -0.187500
vn 0.5774 0.5774 -0.5773
vn -0.0000 -0.0000 -1.0000
vn 1.0000 -0.0000 -0.0000
vn -0.0000 -0.0000 1.0000
vn -1.0000 -0.0000 -0.0000
vn -0.0000 1.0000 -0.0000
vn -0.0000 -1.0000 -0.0000
vt 0.700000 0.820000
vt 0.650000 0.730000
vt 0.750000 0.730000
vt 0.650000 0.950000
vt 0.700000 0.950000
vt 0.700000 1.000000
vt 0.650000 1.000000
vt 0.750000 0.950000
vt 0.800000 0.950000
vt 0.800000 1.000000
vt 0.750000 1.000000
vt 0.820000 0.950000
vt 0.870000 0.950000
vt 0.870000 1.000000
vt 0.820000 1.000000
vt 0.650000 0.430000
vt 0.650000 0.380000
vt 0.700000 0.380000
vt 0.700000 0.430000
vt 0.650000 0.280000
vt 0.700000 0.280000
vt 0.700000 0.330000
vt 0.650000 0.330000
vt 0.750000 0.380000
vt 0.750000 0.430000
vt 0.650000 0.230000
vt 0.700000 0.230000
s 0
usemtl m_c78b1022-622e-42c8-e92d-4211a0933fbd
f 3/1/1 1/2/1 2/3/1
s 1
f 7/4/2 10/5/2 8/6/2 5/7/2
f 6/4/3 7/5/3 5/6/3 4/7/3
f 11/8/4 6/9/4 4/10/4 9/11/4
f 10/12/5 11/13/5 9/14/5 8/15/5
f 9/16/6 4/17/6 5/18/6 8/19/6
f 10/20/7 7/21/7 6/22/7 11/23/7
f 15/4/2 18/5/2 16/6/2 13/7/2
f 14/4/3 15/5/3 13/6/3 12/7/3
f 19/4/4 14/5/4 12/6/4 17/7/4
f 18/4/5 19/5/5 17/6/5 16/7/5
f 17/4/6 12/5/6 13/6/6 16/7/6
f 18/4/7 15/5/7 14/6/7 19/7/7
f 23/4/2 26/5/2 24/6/2 21/7/2
f 22/12/3 23/13/3 21/14/3 20/15/3
f 27/4/4 22/5/4 20/6/4 25/7/4
f 26/8/5 27/9/5 25/10/5 24/11/5
f 25/19/6 20/18/6 21/24/6 24/25/6
f 26/11/7 23/8/7 22/9/7 27/10/7
f 31/8/2 34/9/2 32/10/2 29/11/2
f 30/4/3 31/5/3 29/6/3 28/7/3
f 35/12/4 30/13/4 28/14/4 33/15/4
f 34/4/5 35/5/5 33/6/5 32/7/5
f 33/17/6 28/23/6 29/22/6 32/18/6
f 34/20/7 31/26/7 30/27/7 35/21/7
s 0
f 20/18/6 32/18/6 29/22/6 21/24/6
