# Blender 5.0.1
# www.blender.org
mtllib 3.mtl
o ne
v 0.312500 0.750000 -0.250000
v 0.312500 0.750000 -0.312500
v 0.312500 0.687500 -0.250000
v 0.312500 0.687500 -0.312500
v 0.250000 0.750000 -0.312500
v 0.250000 0.750000 -0.250000
v 0.250000 0.687500 -0.312500
v 0.250000 0.687500 -0.250000
v 0.250000 0.812500 -0.250000
v 0.250000 0.812500 -0.312500
v 0.250000 0.750000 -0.250000
v 0.250000 0.750000 -0.312500
v 0.187500 0.812500 -0.312500
v 0.187500 0.812500 -0.250000
v 0.187500 0.750000 -0.312500
v 0.187500 0.750000 -0.250000
v 0.312500 0.812500 -0.187500
v 0.312500 0.812500 -0.250000
v 0.312500 0.750000 -0.187500
v 0.312500 0.750000 -0.250000
v 0.250000 0.812500 -0.250000
v 0.250000 0.812500 -0.187500
v 0.250000 0.750000 -0.250000
v 0.250000 0.750000 -0.187500
vn -0.0000 -0.0000 -1.0000
vn 1.0000 -0.0000 -0.0000
vn -0.0000 -0.0000 1.0000
vn -1.0000 -0.0000 -0.0000
vn -0.0000 1.0000 -0.0000
vn -0.0000 -1.0000 -0.0000
vt 0.650000 0.950000
vt 0.700000 0.950000
vt 0.700000 1.000000
vt 0.650000 1.000000
s 1
usemtl m_c78b1022-622e-42c8-e92d-4211a0933fbd
f 4/1/1 7/2/1 5/3/1 2/4/1
f 3/1/2 4/2/2 2/3/2 1/4/2
f 8/1/3 3/2/3 1/3/3 6/4/3
f 7/1/4 8/2/4 6/3/4 5/4/4
f 6/1/5 1/2/5 2/3/5 5/4/5
f 7/1/6 4/2/6 3/3/6 8/4/6
f 12/1/1 15/2/1 13/3/1 10/4/1
f 11/1/2 12/2/2 10/3/2 9/4/2
f 16/1/3 11/2/3 9/3/3 14/4/3
f 15/1/4 16/2/4 14/3/4 13/4/4
f 14/1/5 9/2/5 10/3/5 13/4/5
f 15/1/6 12/2/6 11/3/6 16/4/6
f 20/1/1 23/2/1 21/3/1 18/4/1
f 19/1/2 20/2/2 18/3/2 17/4/2
f 24/1/3 19/2/3 17/3/3 22/4/3
f 23/1/4 24/2/4 22/3/4 21/4/4
f 22/1/5 17/2/5 18/3/5 21/4/5
f 23/1/6 20/2/6 19/3/6 24/4/6
o ne.001
v 0.312500 0.812500 -0.250000
v 0.312500 0.750000 -0.312500
v 0.250000 0.812500 -0.312500
v 0.312500 0.812500 -0.250000
v 0.312500 0.750000 -0.312500
v 0.250000 0.812500 -0.312500
vn 0.5774 0.5774 -0.5774
vn -0.5774 -0.5774 0.5774
vt 0.650000 0.730000
vt 0.700000 0.810000
vt 0.750000 0.730000
s 0
usemtl m_c78b1022-622e-42c8-e92d-4211a0933fbd
f 26/5/7 27/6/7 25/7/7
f 29/5/8 28/6/8 30/7/8
